<?xml version="1.0" encoding="utf-8"?>
<svg viewBox="10466.2391 1534.5263 3386.3037 3920.3447" xmlns="http://www.w3.org/2000/svg">
  <g transform="matrix(1, 0, 0, 1, 1437.015502929687, -361.86727905273426)">
    <g id="l49AzeEzn4KVZyDxWb50Bka" fill="rgb(130,249,36)" style="" transform="matrix(1, 0, 0, 1, 5558.073242, -665.48877)">
      <g style="transform: none;">
        <path id="p44Xosr73" d="M4942 5258 c-277 -273 -464 -487 -608 -698 l-79 -116 -69 38 c-38 21 -73 38 -78 38 -4 0 -8 -20 -8 -45 0 -43 2 -46 58 -83 58 -40 351 -224 409 -257 18 -11 35 -17 38 -14 3 3 6 23 8 44 l2 39 -110 72 c-60 40 -122 82 -137 94 -27 21 -28 22 -12 53 30 58 161 240 244 339 111 133 449 478 468 478 33 0 398 -383 547 -575 102 -132 199 -283 264 -413 120 -238 161 -397 162 -622 0 -150 -24 -270 -77 -392 -228 -515 -838 -735 -1333 -480 -317 163 -508 448 -536 802 -6 81 7 241 27 314 l12 45 28 -15 c16 -8 66 -39 113 -69 81 -53 85 -54 112 -40 15 8 34 15 41 15 27 0 9 22 -58 67 -123 84 -348 223 -362 223 -4 0 -8 -21 -8 -48 0 -37 4 -50 21 -60 24 -15 24 -18 -5 -207 -32 -205 -9 -384 72 -575 101 -240 297 -441 542 -557 100 -47 265 -85 401 -90 229 -10 431 47 624 175 233 154 399 395 454 657 35 170 36 277 5 455 -60 342 -259 693 -618 1095 -104 116 -416 425 -430 425 -5 0 -61 -51 -124 -112z"/>
        <path id="pQpynEpvF" d="M3870 4387 c0 -23 4 -47 8 -52 6 -9 88 -63 387 -252 39 -24 111 -70 162 -103 116 -74 125 -77 141 -43 6 15 12 33 12 40 0 15 -205 149 -555 365 -159 98 -155 97 -155 45z"/>
      </g>
    </g>
    <g>
      <g id="l4eOSUkTG6j82ryKxcmhr6Z" fill="rgb(253,253,253)" style="" transform="matrix(1, 0, 0, 1, 5549.223633, -722.6427)">
        <g style="transform: none;">
          <path id="pHxmvPjUP" d="M6485 6518 c4 -13 25 -65 45 -116 22 -53 34 -95 28 -98 -11 -7 -10 -4 -99 -239 -37 -99 -66 -181 -64 -183 1 -2 29 -4 60 -4 70 -2 75 3 115 127 37 113 53 155 60 155 6 0 62 -150 81 -218 7 -23 18 -47 26 -53 11 -10 121 -15 129 -7 4 5 -31 100 -140 383 l-103 270 -72 3 c-72 3 -73 3 -66 -20z"/>
          <path id="phiwq4nJp" d="M4289 6300 c-52 -9 -116 -39 -140 -66 -57 -65 -70 -175 -30 -252 61 -119 260 -153 379 -65 44 33 60 60 71 119 14 72 7 75 -163 68 -81 -3 -147 -1 -154 4 -30 20 42 102 88 102 25 0 78 -32 83 -49 5 -20 65 -32 111 -24 34 7 33 30 -3 80 -48 67 -143 99 -242 83z m143 -285 c-11 -73 -143 -88 -174 -19 -17 37 1 45 97 42 74 -3 80 -5 77 -23z"/>
          <path id="p1FQV1lkQd" d="M5910 6300 c-106 -20 -172 -102 -173 -215 -1 -139 120 -244 249 -215 26 6 60 20 76 32 l29 20 6 -21 c5 -19 13 -21 69 -21 l64 0 0 210 0 210 -57 0 c-66 0 -87 -9 -77 -33 5 -14 -2 -13 -42 7 -57 28 -96 35 -144 26z m114 -114 c44 -18 66 -52 66 -101 -1 -115 -151 -146 -196 -39 -8 18 -11 46 -8 63 7 32 48 76 79 84 11 3 21 5 23 6 1 0 18 -5 36 -13z"/>
          <path id="pVYHyqTZU" d="M3480 5970 l0 -330 133 0 c152 0 194 9 243 52 104 92 83 281 -38 344 -16 8 -28 20 -28 27 0 7 36 59 80 116 44 56 80 107 80 112 0 5 -37 9 -82 8 l-83 0 -53 -82 c-63 -97 -90 -132 -98 -124 -3 3 -8 51 -11 106 l-6 101 -68 0 -69 0 0 -330z m281 -49 c75 -75 -4 -200 -108 -172 -27 7 -28 9 -31 91 -2 46 -1 89 2 97 4 8 23 13 56 13 44 0 56 -5 81 -29z"/>
          <path id="p1Egw98pw" d="M4775 6290 c-7 -11 -5 -569 2 -617 l5 -33 127 0 c155 0 191 9 246 65 76 76 82 196 13 279 -42 51 -81 68 -173 75 l-80 6 -3 118 -3 117 -64 0 c-35 0 -67 -4 -70 -10z m227 -340 c48 -14 78 -52 78 -99 0 -69 -64 -119 -136 -105 l-34 6 0 92 c0 118 9 129 92 106z"/>
          <path id="p6lE0E3Cp" d="M5402 5937 l3 -362 65 0 65 0 3 362 2 361 -70 1 -70 0 2 -362z"/>
          <path id="pvLpdKvmt" d="M5010 4080 c-95 -19 -105 -24 -108 -58 -3 -30 0 -33 68 -66 66 -33 74 -35 98 -22 38 19 135 46 166 46 56 0 47 71 -11 88 -55 16 -161 22 -213 12z"/>
          <path id="p9MNFdGzo" d="M5330 3998 c0 -15 26 -49 76 -100 61 -62 83 -78 106 -78 l30 0 -31 43 c-49 66 -94 110 -140 135 l-41 23 0 -23z"/>
          <path id="p8xYGyc2X" d="M4784 3981 c-60 -44 -141 -141 -117 -141 12 0 168 158 162 165 -3 3 -23 -8 -45 -24z"/>
          <path id="p12qggumpX" d="M4802 3877 c-34 -34 -62 -68 -62 -75 0 -7 14 -40 30 -73 l31 -60 52 5 c116 11 126 15 133 55 3 20 9 50 14 67 15 59 4 78 -66 112 -35 18 -66 32 -67 32 -1 0 -31 -28 -65 -63z"/>
          <path id="p9jz8qDtJ" d="M5185 3915 c-27 -7 -66 -21 -86 -29 -35 -14 -37 -18 -43 -73 -4 -32 -9 -76 -12 -98 -5 -39 -3 -42 65 -107 78 -76 80 -76 205 -55 l69 12 19 55 c10 30 24 77 30 104 l10 48 -78 79 c-86 86 -91 88 -179 64z"/>
          <path id="p10zqOpBjL" d="M4611 3748 c-24 -68 -30 -167 -15 -251 7 -45 18 -85 23 -90 5 -5 21 -7 37 -5 27 3 29 7 45 83 9 44 24 97 33 118 17 38 16 39 -17 105 -29 59 -36 67 -64 70 -27 3 -32 -1 -42 -30z"/>
          <path id="psHlIjYlf" d="M5481 3696 c-6 -35 -21 -86 -32 -114 l-21 -49 30 -60 c17 -32 37 -65 45 -71 22 -19 63 1 72 35 19 74 24 152 14 218 -15 92 -22 105 -63 105 -34 0 -34 0 -45 -64z"/>
          <path id="p5FuaKLIl" d="M4863 3621 c-23 -4 -51 -15 -61 -24 -19 -18 -47 -96 -57 -162 -6 -39 -5 -41 74 -119 l80 -79 53 11 c29 6 78 20 109 31 l56 21 12 97 12 97 -68 68 c-66 67 -68 68 -118 67 -27 -1 -69 -5 -92 -8z"/>
          <path id="py82u8qAY" d="M5266 3489 c-33 -5 -63 -12 -67 -16 -4 -5 -11 -43 -16 -86 -11 -89 -12 -87 76 -129 l56 -27 63 62 c34 34 62 68 62 77 0 8 -13 40 -28 70 -32 62 -41 65 -146 49z"/>
          <path id="pMsWe4Rsa" d="M4667 3319 c29 -50 82 -107 128 -139 24 -17 46 -30 49 -30 3 0 6 12 6 27 0 38 -135 173 -174 173 l-27 0 18 -31z"/>
          <path id="pxZclelOQ" d="M5410 3245 c-40 -42 -70 -78 -67 -81 17 -18 157 109 157 142 0 26 -16 14 -90 -61z"/>
          <path id="pWaKxFRBg" d="M5095 3231 c-22 -10 -65 -23 -95 -30 -93 -21 -89 -19 -83 -54 6 -40 10 -43 100 -56 75 -11 181 -3 237 19 23 8 27 15 24 42 -2 27 -11 36 -53 59 -72 38 -85 41 -130 20z"/>
        </g>
      </g>
    </g>
  </g>
</svg>